<svg width="37" height="38" viewBox="0 0 37 38" fill="none" xmlns="http://www.w3.org/2000/svg">
<path d="M5.33333 26V15.4721C5.33333 15.0785 5.46694 14.7486 5.73417 14.4825C6.00111 14.2164 6.33208 14.0833 6.72708 14.0833C7.12208 14.0833 7.45153 14.2164 7.71542 14.4825C7.97931 14.7486 8.11125 15.0785 8.11125 15.4721V26C8.11125 26.3933 7.97764 26.7232 7.71042 26.9896C7.44319 27.2557 7.11222 27.3888 6.7175 27.3888C6.3225 27.3888 5.99306 27.2557 5.72917 26.9896C5.46528 26.7232 5.33333 26.3933 5.33333 26ZM15.3888 26V15.4721C15.3888 15.0785 15.5224 14.7486 15.7896 14.4825C16.0568 14.2164 16.3878 14.0833 16.7825 14.0833C17.1775 14.0833 17.5069 14.2164 17.7708 14.4825C18.0347 14.7486 18.1667 15.0785 18.1667 15.4721V26C18.1667 26.3933 18.0331 26.7232 17.7658 26.9896C17.4989 27.2557 17.1679 27.3888 16.7729 27.3888C16.3779 27.3888 16.0485 27.2557 15.7846 26.9896C15.5207 26.7232 15.3888 26.3933 15.3888 26ZM32.0554 11.3054H1.13875C0.822361 11.3054 0.553472 11.1947 0.332083 10.9733C0.110694 10.7519 0 10.4831 0 10.1667V9.38875C0 9.1757 0.0579166 8.98125 0.17375 8.80542C0.289305 8.62958 0.435139 8.4907 0.61125 8.38875L15.3333 0.333333C15.7531 0.111111 16.1975 0 16.6667 0C17.1358 0 17.5803 0.111111 18 0.333333L32.6667 8.34708C32.8797 8.46736 33.044 8.62945 33.1596 8.83333C33.2754 9.03695 33.3333 9.25917 33.3333 9.5V9.9925C33.3333 10.3644 33.2108 10.6763 32.9658 10.9279C32.7211 11.1796 32.4176 11.3054 32.0554 11.3054ZM6.20833 8.5275H27.125L16.6667 2.7775L6.20833 8.5275ZM1.38875 32.9442C0.995417 32.9442 0.665556 32.8107 0.399167 32.5438C0.133056 32.2765 0 31.9454 0 31.5504C0 31.1557 0.133056 30.8264 0.399167 30.5625C0.665556 30.2986 0.995417 30.1667 1.38875 30.1667H19.1946C19.5879 30.1667 19.9178 30.3001 20.1842 30.5671C20.4503 30.8343 20.5833 31.1654 20.5833 31.5604C20.5833 31.9551 20.4503 32.2844 20.1842 32.5483C19.9178 32.8122 19.5879 32.9442 19.1946 32.9442H1.38875ZM26.6063 19.8608C26.2113 19.8608 25.8818 19.7278 25.6179 19.4617C25.354 19.1956 25.2221 18.8657 25.2221 18.4721V15.4721C25.2221 15.0785 25.3557 14.7486 25.6229 14.4825C25.8901 14.2164 26.2211 14.0833 26.6158 14.0833C27.0108 14.0833 27.3403 14.2164 27.6042 14.4825C27.8681 14.7486 28 15.0785 28 15.4721V18.4721C28 18.8657 27.8664 19.1956 27.5992 19.4617C27.3322 19.7278 27.0013 19.8608 26.6063 19.8608ZM23.3333 28.8888V25.5138C23.3333 25.2607 23.4004 25.0192 23.5346 24.7892C23.669 24.5592 23.8612 24.384 24.1112 24.2638L29.3888 21.625C29.5688 21.5231 29.7711 21.4721 29.9958 21.4721C30.2208 21.4721 30.426 21.5231 30.6112 21.625L35.8888 24.2638C36.1388 24.384 36.331 24.5592 36.4654 24.7892C36.5996 25.0192 36.6667 25.2607 36.6667 25.5138V28.8888C36.6667 31.0276 36.1204 32.8401 35.0279 34.3263C33.9351 35.8124 32.4397 36.9536 30.5417 37.75C30.4492 37.7961 30.2686 37.8285 30 37.8471C29.9814 37.8471 29.8008 37.8147 29.4583 37.75C27.5603 36.9536 26.0649 35.8124 24.9721 34.3263C23.8796 32.8401 23.3333 31.0276 23.3333 28.8888ZM29.0138 30.2358L27.5138 28.7358C27.3193 28.5414 27.0925 28.4465 26.8333 28.4513C26.5742 28.456 26.3474 28.5556 26.1529 28.75C25.9585 28.9444 25.8612 29.1713 25.8612 29.4304C25.8612 29.6896 25.9585 29.9164 26.1529 30.1108L28.0417 32C28.3194 32.2778 28.6435 32.4167 29.0138 32.4167C29.3843 32.4167 29.7085 32.2778 29.9862 32L34.2083 27.7917C34.4028 27.5972 34.5 27.3703 34.5 27.1108C34.5 26.8517 34.4028 26.6249 34.2083 26.4304C34.0139 26.236 33.7871 26.1411 33.5279 26.1458C33.2685 26.1503 33.0415 26.2451 32.8471 26.4304L29.0138 30.2358Z" fill="#CE9E7A"/>
</svg>
