<svg width="33" height="35" viewBox="0 0 33 35" fill="none" xmlns="http://www.w3.org/2000/svg">
<path d="M4.8 24.1002V14.6251C4.8 14.2708 4.92025 13.9739 5.16075 13.7344C5.401 13.4949 5.69887 13.3752 6.05437 13.3752C6.40987 13.3752 6.70638 13.4949 6.94388 13.7344C7.18138 13.9739 7.30013 14.2708 7.30013 14.6251V24.1002C7.30013 24.4542 7.17987 24.7511 6.93937 24.9908C6.69887 25.2303 6.401 25.3501 6.04575 25.3501C5.69025 25.3501 5.39375 25.2303 5.15625 24.9908C4.91875 24.7511 4.8 24.4542 4.8 24.1002ZM13.8499 24.1002V14.6251C13.8499 14.2708 13.9701 13.9739 14.2106 13.7344C14.4511 13.4949 14.749 13.3752 15.1043 13.3752C15.4598 13.3752 15.7563 13.4949 15.9938 13.7344C16.2313 13.9739 16.35 14.2708 16.35 14.6251V24.1002C16.35 24.4542 16.2298 24.7511 15.9893 24.9908C15.749 25.2303 15.4511 25.3501 15.0956 25.3501C14.7401 25.3501 14.4436 25.2303 14.2061 24.9908C13.9686 24.7511 13.8499 24.4542 13.8499 24.1002ZM28.8499 10.8751H1.02488C0.740125 10.8751 0.498125 10.7754 0.298875 10.5762C0.099625 10.3769 0 10.1349 0 9.85019V9.15007C0 8.95832 0.0521249 8.78332 0.156375 8.62507C0.260375 8.46682 0.391625 8.34182 0.550125 8.25007L13.8 1.0002C14.1778 0.800195 14.5778 0.700195 15 0.700195C15.4223 0.700195 15.8222 0.800195 16.2 1.0002L29.4 8.21257C29.5918 8.32082 29.7396 8.4667 29.8436 8.6502C29.9479 8.83345 30 9.03345 30 9.2502V9.69345C30 10.0282 29.8898 10.3088 29.6693 10.5353C29.449 10.7618 29.1759 10.8751 28.8499 10.8751ZM5.5875 8.37495H24.4125L15 3.19995L5.5875 8.37495ZM1.24988 30.3499C0.895875 30.3499 0.599 30.2298 0.35925 29.9896C0.11975 29.7491 0 29.4511 0 29.0956C0 28.7403 0.11975 28.4439 0.35925 28.2064C0.599 27.9689 0.895875 27.8502 1.24988 27.8502H17.2751C17.6291 27.8502 17.926 27.9703 18.1657 28.2106C18.4052 28.4511 18.525 28.7491 18.525 29.1046C18.525 29.4598 18.4052 29.7562 18.1657 29.9937C17.926 30.2312 17.6291 30.3499 17.2751 30.3499H1.24988ZM23.9456 18.5749C23.5901 18.5749 23.2936 18.4552 23.0561 18.2157C22.8186 17.9762 22.6999 17.6793 22.6999 17.3251V14.6251C22.6999 14.2708 22.8201 13.9739 23.0606 13.7344C23.3011 13.4949 23.599 13.3752 23.9543 13.3752C24.3098 13.3752 24.6063 13.4949 24.8438 13.7344C25.0813 13.9739 25.2 14.2708 25.2 14.6251V17.3251C25.2 17.6793 25.0798 17.9762 24.8392 18.2157C24.599 18.4552 24.3011 18.5749 23.9456 18.5749ZM21 26.7001V23.6626C21 23.4348 21.0604 23.2174 21.1811 23.0104C21.3021 22.8034 21.4751 22.6458 21.7001 22.5376L26.4499 20.1627C26.6119 20.0709 26.794 20.0251 26.9963 20.0251C27.1987 20.0251 27.3834 20.0709 27.5501 20.1627L32.2999 22.5376C32.5249 22.6458 32.6979 22.8034 32.8189 23.0104C32.9396 23.2174 33 23.4348 33 23.6626V26.7001C33 28.6251 32.5084 30.2563 31.5251 31.5938C30.5416 32.9313 29.1958 33.9584 27.4875 34.6752C27.4043 34.7167 27.2417 34.7458 27 34.7626C26.9832 34.7626 26.8207 34.7334 26.5125 34.6752C24.8043 33.9584 23.4584 32.9313 22.4749 31.5938C21.4916 30.2563 21 28.6251 21 26.7001ZM26.1124 27.9124L24.7624 26.5624C24.5874 26.3874 24.3832 26.3021 24.15 26.3063C23.9167 26.3106 23.7126 26.4002 23.5376 26.5752C23.3626 26.7502 23.2751 26.9543 23.2751 27.1876C23.2751 27.4208 23.3626 27.6249 23.5376 27.7999L25.2375 29.5002C25.4875 29.7502 25.7791 29.8752 26.1124 29.8752C26.4459 29.8752 26.7376 29.7502 26.9876 29.5002L30.7875 25.7127C30.9625 25.5377 31.05 25.3334 31.05 25.0999C31.05 24.8667 30.9625 24.6626 30.7875 24.4876C30.6125 24.3126 30.4084 24.2272 30.1751 24.2314C29.9416 24.2354 29.7374 24.3208 29.5624 24.4876L26.1124 27.9124Z" fill="#CE9E7A"/>
</svg>
