<svg width="24" height="35" viewBox="0 0 24 35" fill="none" xmlns="http://www.w3.org/2000/svg">
<path d="M8.87592 29.6763L19.5009 16.9263H12.2784L13.6813 5.82875L4.08426 19.7038H10.2926L8.87592 29.6763ZM7.09801 22.4817H1.40342C0.850367 22.4817 0.441339 22.234 0.176339 21.7388C-0.0889388 21.2432 -0.0549111 20.764 0.278422 20.3013L13.8201 0.773334C14.0609 0.440001 14.3665 0.210834 14.7368 0.0858339C15.1073 -0.0391661 15.4823 -0.0276376 15.8618 0.120418C16.2415 0.268751 16.5331 0.515694 16.7368 0.86125C16.9406 1.20708 17.0148 1.57597 16.9593 1.96792L15.4313 14.1483H22.473C23.0722 14.1483 23.4929 14.4122 23.7351 14.94C23.977 15.4678 23.9081 15.9632 23.5284 16.4263L8.65342 34.2596C8.39537 34.5632 8.07856 34.7618 7.703 34.8554C7.32745 34.9488 6.96842 34.9144 6.62592 34.7525C6.28314 34.5906 6.01231 34.3417 5.81342 34.0058C5.61426 33.6703 5.54245 33.3057 5.59801 32.9121L7.09801 22.4817Z" fill="#CE9E7A"/>
</svg>
