<svg width="22" height="33" viewBox="0 0 22 33" fill="none" xmlns="http://www.w3.org/2000/svg">
<path d="M7.98833 27.4708L17.5508 15.9958H11.0506L12.3132 6.00808L3.67583 18.4956H9.26333L7.98833 27.4708ZM6.38821 20.9957H1.26308C0.76533 20.9957 0.397205 20.7728 0.158705 20.3271C-0.0800449 19.8811 -0.04942 19.4498 0.25058 19.0333L12.4381 1.45821C12.6548 1.15821 12.9298 0.951958 13.2631 0.839458C13.5966 0.726958 13.9341 0.737333 14.2756 0.870583C14.6173 1.00408 14.8798 1.22633 15.0631 1.53733C15.2466 1.84858 15.3133 2.18058 15.2633 2.53333L13.8882 13.4957H20.2257C20.765 13.4957 21.1436 13.7332 21.3616 14.2082C21.5793 14.6832 21.5173 15.1291 21.1756 15.5458L7.78808 31.5958C7.55583 31.8691 7.2707 32.0478 6.9327 32.1321C6.5947 32.2161 6.27158 32.1852 5.96333 32.0395C5.65483 31.8937 5.41108 31.6697 5.23208 31.3675C5.05283 31.0655 4.9882 30.7373 5.03821 30.3831L6.38821 20.9957Z" fill="#CE9E7A"/>
</svg>
