<svg width="342" height="48" viewBox="0 0 342 48" fill="none" xmlns="http://www.w3.org/2000/svg">
<rect width="10" height="10" fill="#293241"/>
<rect opacity="0.3" x="18" width="10" height="10" fill="#293241"/>
<rect opacity="0.3" x="36" width="10" height="10" fill="#293241"/>
<rect opacity="0.3" x="54" width="10" height="10" fill="#293241"/>
<rect x="238.5" y="0.5" width="47" height="47" rx="13.5" stroke="#293241" stroke-opacity="0.3"/>
<mask id="mask0_46_133" style="mask-type:alpha" maskUnits="userSpaceOnUse" x="254" y="16" width="16" height="16">
<rect x="254" y="16" width="16" height="16" fill="#D9D9D9"/>
</mask>
<g mask="url(#mask0_46_133)">
<path d="M259.217 24.6667L262.95 28.4001L262 29.3334L256.667 24.0001L262 18.6667L262.95 19.6001L259.217 23.3334H267.333V24.6667H259.217Z" fill="#293241"/>
</g>
<rect x="341.5" y="47.5" width="47" height="47" rx="13.5" transform="rotate(-180 341.5 47.5)" stroke="#293241" stroke-opacity="0.3"/>
<mask id="mask1_46_133" style="mask-type:alpha" maskUnits="userSpaceOnUse" x="310" y="16" width="16" height="16">
<rect x="326" y="32" width="16" height="16" transform="rotate(-180 326 32)" fill="#D9D9D9"/>
</mask>
<g mask="url(#mask1_46_133)">
<path d="M320.783 23.3333L317.05 19.5999L318 18.6666L323.333 23.9999L318 29.3333L317.05 28.3999L320.783 24.6666L312.667 24.6666L312.667 23.3333L320.783 23.3333Z" fill="#293241"/>
</g>
</svg>
