<svg width="92" height="20" viewBox="0 0 92 20" fill="none" xmlns="http://www.w3.org/2000/svg">
<path d="M18.3332 10.2524C18.3332 5.62192 14.6023 1.86816 9.99984 1.86816C5.39746 1.86816 1.6665 5.62192 1.6665 10.2524C1.6665 14.4372 4.71387 17.9058 8.69775 18.5348V12.676H6.58187V10.2524H8.69775V8.40526C8.69775 6.30396 9.94192 5.14326 11.8453 5.14326C12.7572 5.14326 13.7108 5.30702 13.7108 5.30702V7.37034H12.66C11.6248 7.37034 11.3019 8.01668 11.3019 8.67975V10.2524H13.6131L13.2437 12.676H11.3019V18.5348C15.2858 17.9058 18.3332 14.4373 18.3332 10.2524Z" fill="white"/>
<path fill-rule="evenodd" clip-rule="evenodd" d="M49.3333 2.70215H42.6667C40.3655 2.70215 38.5 4.56763 38.5 6.86881V13.5355C38.5 15.8366 40.3655 17.7021 42.6667 17.7021H49.3333C51.6345 17.7021 53.5 15.8366 53.5 13.5355V6.86881C53.5 4.56763 51.6345 2.70215 49.3333 2.70215ZM52.0417 13.5355C52.0371 15.0293 50.8272 16.2392 49.3333 16.2438H42.6667C41.1728 16.2392 39.9629 15.0293 39.9583 13.5355V6.86881C39.9629 5.37494 41.1728 4.16506 42.6667 4.16048H49.3333C50.8272 4.16506 52.0371 5.37494 52.0417 6.86881V13.5355ZM49.9583 7.07715C50.4186 7.07715 50.7917 6.70405 50.7917 6.24381C50.7917 5.78358 50.4186 5.41048 49.9583 5.41048C49.4981 5.41048 49.125 5.78358 49.125 6.24381C49.125 6.70405 49.4981 7.07715 49.9583 7.07715ZM46 6.45215C43.9289 6.45215 42.25 8.13108 42.25 10.2021C42.25 12.2732 43.9289 13.9521 46 13.9521C48.0711 13.9521 49.75 12.2732 49.75 10.2021C49.7522 9.2069 49.3578 8.25179 48.6541 7.54805C47.9503 6.84431 46.9952 6.44993 46 6.45215ZM43.7083 10.2021C43.7083 11.4678 44.7343 12.4938 46 12.4938C47.2657 12.4938 48.2917 11.4678 48.2917 10.2021C48.2917 8.93648 47.2657 7.91048 46 7.91048C44.7343 7.91048 43.7083 8.93648 43.7083 10.2021Z" fill="white"/>
<path d="M87.8335 16.6678C87.8335 9.77449 82.226 4.16699 75.3335 4.16699V5.83366C81.3068 5.83366 86.1668 10.6937 86.1668 16.6678H87.8335Z" fill="white"/>
<path d="M82.0002 16.6678H83.6668C83.6668 12.072 79.9285 8.33366 75.3335 8.33366V10.0003C79.0093 10.0003 82.0002 12.9912 82.0002 16.6678Z" fill="white"/>
<path d="M77.0002 16.667C77.9206 16.667 78.6668 15.9208 78.6668 15.0003C78.6668 14.0799 77.9206 13.3337 77.0002 13.3337C76.0797 13.3337 75.3335 14.0799 75.3335 15.0003C75.3335 15.9208 76.0797 16.667 77.0002 16.667Z" fill="white"/>
</svg>
