<svg width="104" height="24" viewBox="0 0 104 24" fill="none" xmlns="http://www.w3.org/2000/svg">
<path d="M22 12.3033C22 6.7467 17.5229 2.24219 12 2.24219C6.47715 2.24219 2 6.7467 2 12.3033C2 17.325 5.65684 21.4874 10.4375 22.2422V15.2116H7.89844V12.3033H10.4375V10.0867C10.4375 7.56515 11.9305 6.17231 14.2146 6.17231C15.3088 6.17231 16.4531 6.36882 16.4531 6.36882V8.8448H15.1922C13.95 8.8448 13.5625 9.62041 13.5625 10.4161V12.3033H16.3359L15.8926 15.2116H13.5625V22.2422C18.3432 21.4874 22 17.3252 22 12.3033Z" fill="white"/>
<path fill-rule="evenodd" clip-rule="evenodd" d="M56 3.24219H48C45.2386 3.24219 43 5.48077 43 8.24219V16.2422C43 19.0036 45.2386 21.2422 48 21.2422H56C58.7614 21.2422 61 19.0036 61 16.2422V8.24219C61 5.48077 58.7614 3.24219 56 3.24219ZM59.25 16.2422C59.2445 18.0348 57.7926 19.4867 56 19.4922H48C46.2074 19.4867 44.7555 18.0348 44.75 16.2422V8.24219C44.7555 6.44954 46.2074 4.99768 48 4.99219H56C57.7926 4.99768 59.2445 6.44954 59.25 8.24219V16.2422ZM56.75 8.49219C57.3023 8.49219 57.75 8.04447 57.75 7.49219C57.75 6.93991 57.3023 6.49219 56.75 6.49219C56.1977 6.49219 55.75 6.93991 55.75 7.49219C55.75 8.04447 56.1977 8.49219 56.75 8.49219ZM52 7.74219C49.5147 7.74219 47.5 9.75691 47.5 12.2422C47.5 14.7275 49.5147 16.7422 52 16.7422C54.4853 16.7422 56.5 14.7275 56.5 12.2422C56.5027 11.0479 56.0294 9.90176 55.1849 9.05727C54.3404 8.21278 53.1943 7.73953 52 7.74219ZM49.25 12.2422C49.25 13.761 50.4812 14.9922 52 14.9922C53.5188 14.9922 54.75 13.761 54.75 12.2422C54.75 10.7234 53.5188 9.49219 52 9.49219C50.4812 9.49219 49.25 10.7234 49.25 12.2422Z" fill="white"/>
<path d="M99 20.001C99 11.729 92.271 5 84 5V7C91.168 7 97 12.832 97 20.001H99Z" fill="white"/>
<path d="M92 20.001H94C94 14.486 89.514 10 84 10V12C88.411 12 92 15.589 92 20.001Z" fill="white"/>
<path d="M86 20C87.1046 20 88 19.1046 88 18C88 16.8954 87.1046 16 86 16C84.8954 16 84 16.8954 84 18C84 19.1046 84.8954 20 86 20Z" fill="white"/>
</svg>
