<svg width="27" height="32" viewBox="0 0 27 32" fill="none" xmlns="http://www.w3.org/2000/svg">
<path d="M2.50012 27.6234C1.82512 27.6234 1.23962 27.3755 0.743625 26.8797C0.247875 26.3837 0 25.7982 0 25.1232V14.0232C0 12.161 0.35625 10.4057 1.06875 8.75749C1.78125 7.10924 2.75 5.66862 3.975 4.43562C5.2 3.20237 6.63713 2.22949 8.28638 1.51699C9.93563 0.804492 11.6919 0.448242 13.5551 0.448242C15.4184 0.448242 17.1688 0.804492 18.8062 1.51699C20.4438 2.22949 21.8671 3.20237 23.0764 4.43562C24.2856 5.66862 25.2419 7.10924 25.9451 8.75749C26.6484 10.4057 27 12.161 27 14.0232V29.4732C27 30.1482 26.7521 30.7337 26.2564 31.2297C25.7604 31.7255 25.1749 31.9734 24.4999 31.9734H14.8001C14.4459 31.9734 14.149 31.8531 13.9095 31.6126C13.6698 31.3724 13.5499 31.0745 13.5499 30.719C13.5499 30.3635 13.6698 30.067 13.9095 29.8295C14.149 29.592 14.4459 29.4732 14.8001 29.4732H24.4999V27.6234H21.3C20.6125 27.6234 20.024 27.3786 19.5345 26.8891C19.0448 26.3994 18.7999 25.8107 18.7999 25.1232V18.7235C18.7999 18.036 19.0448 17.4474 19.5345 16.9576C20.024 16.4681 20.6125 16.2234 21.3 16.2234H24.4999V14.0232C24.4999 10.99 23.4333 8.38587 21.3 6.21087C19.1667 4.03587 16.5834 2.94837 13.5499 2.94837C10.5166 2.94837 7.91662 4.03587 5.74987 6.21087C3.58337 8.38587 2.50012 10.99 2.50012 14.0232V16.2234H5.7C6.3875 16.2234 6.976 16.4681 7.4655 16.9576C7.95525 17.4474 8.20013 18.036 8.20013 18.7235V25.1232C8.20013 25.8107 7.95525 26.3994 7.4655 26.8891C6.976 27.3786 6.3875 27.6234 5.7 27.6234H2.50012ZM2.50012 25.1232H5.7V18.7235H2.50012V25.1232ZM21.3 25.1232H24.4999V18.7235H21.3V25.1232Z" fill="#CE9E7A"/>
</svg>
