<svg width="30" height="36" viewBox="0 0 30 36" fill="none" xmlns="http://www.w3.org/2000/svg">
<path d="M2.77792 30.6946C2.02792 30.6946 1.37736 30.4192 0.82625 29.8683C0.275417 29.3172 0 28.6667 0 27.9167V15.5833C0 13.5142 0.395833 11.5639 1.1875 9.7325C1.97917 7.90111 3.05556 6.30042 4.41667 4.93042C5.77778 3.56014 7.37458 2.47917 9.20708 1.6875C11.0396 0.895833 12.991 0.5 15.0613 0.5C17.1315 0.5 19.0764 0.895833 20.8958 1.6875C22.7153 2.47917 24.2968 3.56014 25.6404 4.93042C26.984 6.30042 28.0465 7.90111 28.8279 9.7325C29.6093 11.5639 30 13.5142 30 15.5833V32.75C30 33.5 29.7246 34.1506 29.1737 34.7017C28.6226 35.2525 27.9721 35.5279 27.2221 35.5279H16.4446C16.051 35.5279 15.7211 35.3943 15.455 35.1271C15.1886 34.8601 15.0554 34.5292 15.0554 34.1342C15.0554 33.7392 15.1886 33.4097 15.455 33.1458C15.7211 32.8819 16.051 32.75 16.4446 32.75H27.2221V30.6946H23.6667C22.9028 30.6946 22.2489 30.4226 21.705 29.8787C21.1608 29.3346 20.8888 28.6806 20.8888 27.9167V20.8058C20.8888 20.0419 21.1608 19.3879 21.705 18.8438C22.2489 18.2999 22.9028 18.0279 23.6667 18.0279H27.2221V15.5833C27.2221 12.2131 26.0369 9.31958 23.6667 6.90292C21.2964 4.48625 18.426 3.27792 15.0554 3.27792C11.6851 3.27792 8.79625 4.48625 6.38875 6.90292C3.98153 9.31958 2.77792 12.2131 2.77792 15.5833V18.0279H6.33333C7.09722 18.0279 7.75111 18.2999 8.295 18.8438C8.83917 19.3879 9.11125 20.0419 9.11125 20.8058V27.9167C9.11125 28.6806 8.83917 29.3346 8.295 29.8787C7.75111 30.4226 7.09722 30.6946 6.33333 30.6946H2.77792ZM2.77792 27.9167H6.33333V20.8058H2.77792V27.9167ZM23.6667 27.9167H27.2221V20.8058H23.6667V27.9167Z" fill="#CE9E7A"/>
</svg>
