<svg width="24" height="30" viewBox="0 0 24 30" fill="none" xmlns="http://www.w3.org/2000/svg">
<path d="M12 27.2501C14.575 26.4166 16.7125 24.852 18.4125 22.5563C20.1125 20.2605 21.1084 17.6918 21.4001 14.85H12V2.53762L2.50013 6.08738V13.35C2.50013 13.6418 2.50425 13.8876 2.5125 14.0876C2.52075 14.2876 2.54988 14.5418 2.59988 14.85H12V27.2501ZM12 29.7C11.8583 29.7 11.7249 29.6875 11.5999 29.6625C11.4749 29.6375 11.3458 29.6 11.2125 29.55C7.77075 28.3918 5.04163 26.2939 3.02513 23.2564C1.00838 20.2189 0 16.9084 0 13.3249V6.06262C0 5.53762 0.152125 5.06262 0.456375 4.63762C0.760375 4.21262 1.14988 3.90425 1.62488 3.7125L11.1251 0.162376C11.4251 0.0541256 11.7168 0 12 0C12.2833 0 12.5749 0.0541256 12.8749 0.162376L22.3751 3.7125C22.8501 3.90425 23.2396 4.21262 23.5436 4.63762C23.8479 5.06262 24 5.53762 24 6.06262V13.3249C24 16.9084 22.9916 20.2189 20.9749 23.2564C18.9584 26.2939 16.2293 28.3918 12.7875 29.55C12.6543 29.6 12.5251 29.6375 12.4001 29.6625C12.2751 29.6875 12.1418 29.7 12 29.7Z" fill="#CE9E7A"/>
</svg>
