<svg width="27" height="33" viewBox="0 0 27 33" fill="none" xmlns="http://www.w3.org/2000/svg">
<path d="M13.3333 30.2779C16.1944 29.3518 18.5694 27.6133 20.4583 25.0625C22.3472 22.5117 23.4537 19.6575 23.7779 16.5H13.3333V2.81958L2.77792 6.76375V14.8333C2.77792 15.1575 2.7825 15.4307 2.79167 15.6529C2.80083 15.8751 2.83319 16.1575 2.88875 16.5H13.3333V30.2779ZM13.3333 33C13.1758 33 13.0276 32.9861 12.8888 32.9583C12.7499 32.9306 12.6064 32.8889 12.4583 32.8333C8.63417 31.5464 5.60181 29.2154 3.36125 25.8404C1.12042 22.4654 0 18.7871 0 14.8054V6.73625C0 6.15292 0.169028 5.62514 0.507083 5.15292C0.844861 4.68069 1.27764 4.33806 1.80542 4.125L12.3613 0.180417C12.6946 0.0601396 13.0186 0 13.3333 0C13.6481 0 13.9721 0.0601396 14.3054 0.180417L24.8612 4.125C25.389 4.33806 25.8218 4.68069 26.1596 5.15292C26.4976 5.62514 26.6667 6.15292 26.6667 6.73625V14.8054C26.6667 18.7871 25.5463 22.4654 23.3054 25.8404C21.0649 29.2154 18.0325 31.5464 14.2083 32.8333C14.0603 32.8889 13.9168 32.9306 13.7779 32.9583C13.639 32.9861 13.4908 33 13.3333 33Z" fill="#CE9E7A"/>
</svg>
