<svg width="33" height="32" viewBox="0 0 33 32" fill="none" xmlns="http://www.w3.org/2000/svg">
<path d="M14.5125 17.1197L11.9625 14.507C11.721 14.2488 11.4231 14.1197 11.0689 14.1197C10.7146 14.1197 10.4043 14.2447 10.1378 14.4947C9.87925 14.7529 9.75 15.0612 9.75 15.4194C9.75 15.7779 9.87925 16.0863 10.1378 16.3445L13.6376 19.8197C13.8876 20.0697 14.1793 20.1947 14.5125 20.1947C14.846 20.1947 15.1378 20.0697 15.3878 19.8197L22.0875 13.1447C22.3375 12.8947 22.4605 12.5947 22.4565 12.2447C22.4522 11.8947 22.321 11.5947 22.0627 11.3447C21.8127 11.1112 21.5148 10.9965 21.1688 11.0008C20.823 11.005 20.5335 11.1238 20.3002 11.357L14.5125 17.1197ZM10.4876 30.3695L8.2125 26.4947L3.73763 25.5695C3.42938 25.5113 3.17525 25.3467 2.97525 25.0757C2.77525 24.8049 2.70025 24.5154 2.75025 24.2072L3.23775 19.7945L0.325125 16.4195C0.108375 16.1945 0 15.9195 0 15.5945C0 15.2695 0.108375 14.9945 0.325125 14.7695L3.23775 11.4197L2.75025 7.00703C2.70025 6.69878 2.77525 6.40915 2.97525 6.13815C3.17525 5.8674 3.42938 5.7029 3.73763 5.64465L8.2125 4.71953L10.4876 0.819525C10.6544 0.544525 10.8878 0.354901 11.1878 0.250651C11.4878 0.146651 11.7878 0.161275 12.0878 0.294525L16.1126 2.11965L20.1375 0.294525C20.4375 0.161275 20.7375 0.142525 21.0375 0.238275C21.3375 0.334025 21.5709 0.519401 21.7376 0.794401L24.0375 4.71953L28.4876 5.64465C28.7959 5.7029 29.05 5.8674 29.25 6.13815C29.45 6.40915 29.525 6.69878 29.475 7.00703L28.9875 11.4197L31.9001 14.7695C32.1169 14.9945 32.2253 15.2695 32.2253 15.5945C32.2253 15.9195 32.1169 16.1945 31.9001 16.4195L28.9875 19.7945L29.475 24.2072C29.525 24.5154 29.45 24.8049 29.25 25.0757C29.05 25.3467 28.7959 25.5113 28.4876 25.5695L24.0375 26.4947L21.7376 30.3947C21.5709 30.6697 21.3375 30.855 21.0375 30.9508C20.7375 31.0465 20.4375 31.0278 20.1375 30.8945L16.1126 29.0694L12.0878 30.8945C11.7878 31.0278 11.4878 31.0424 11.1878 30.9384C10.8878 30.8342 10.6544 30.6445 10.4876 30.3695ZM12.1628 28.0944L16.1126 26.4197L20.1626 28.0944L22.5375 24.3947L26.8376 23.3195L26.4128 18.9444L29.3625 15.5945L26.4128 12.1697L26.8376 7.79453L22.5375 6.7944L20.0876 3.09465L16.1126 4.7694L12.0626 3.09465L9.68775 6.7944L5.38763 7.79453L5.8125 12.1697L2.86275 15.5945L5.8125 18.9444L5.38763 23.3945L9.68775 24.3947L12.1628 28.0944Z" fill="#CE9E7A"/>
</svg>
