<svg width="36" height="35" viewBox="0 0 36 35" fill="none" xmlns="http://www.w3.org/2000/svg">
<path d="M16.125 19.3238L13.2917 16.4209C13.0233 16.1339 12.6924 15.9905 12.2987 15.9905C11.9051 15.9905 11.5603 16.1294 11.2642 16.4071C10.9769 16.6941 10.8333 17.0366 10.8333 17.4346C10.8333 17.833 10.9769 18.1756 11.2642 18.4626L15.1529 22.3238C15.4307 22.6016 15.7547 22.7405 16.125 22.7405C16.4956 22.7405 16.8197 22.6016 17.0975 22.3238L24.5417 14.9071C24.8194 14.6294 24.9561 14.296 24.9517 13.9071C24.9469 13.5183 24.8011 13.1849 24.5142 12.9071C24.2364 12.6477 23.9053 12.5203 23.5208 12.5251C23.1367 12.5298 22.815 12.6617 22.5558 12.9209L16.125 19.3238ZM11.6529 34.0459L9.125 29.7405L4.15292 28.7126C3.81042 28.6478 3.52806 28.4649 3.30583 28.1638C3.08361 27.863 3.00028 27.5413 3.05583 27.1988L3.5975 22.2959L0.36125 18.5459C0.120417 18.2959 0 17.9903 0 17.6292C0 17.2681 0.120417 16.9626 0.36125 16.7126L3.5975 12.9905L3.05583 8.08756C3.00028 7.74506 3.08361 7.42325 3.30583 7.12214C3.52806 6.82131 3.81042 6.63853 4.15292 6.57381L9.125 5.54589L11.6529 1.21256C11.8382 0.907003 12.0975 0.696309 12.4308 0.580476C12.7642 0.464921 13.0975 0.48117 13.4308 0.629225L17.9029 2.65714L22.375 0.629225C22.7083 0.48117 23.0417 0.460336 23.375 0.566725C23.7083 0.673114 23.9676 0.879087 24.1529 1.18464L26.7083 5.54589L31.6529 6.57381C31.9954 6.63853 32.2778 6.82131 32.5 7.12214C32.7222 7.42325 32.8056 7.74506 32.75 8.08756L32.2083 12.9905L35.4446 16.7126C35.6854 16.9626 35.8058 17.2681 35.8058 17.6292C35.8058 17.9903 35.6854 18.2959 35.4446 18.5459L32.2083 22.2959L32.75 27.1988C32.8056 27.5413 32.7222 27.863 32.5 28.1638C32.2778 28.4649 31.9954 28.6478 31.6529 28.7126L26.7083 29.7405L24.1529 34.0738C23.9676 34.3794 23.7083 34.5853 23.375 34.6917C23.0417 34.7981 22.7083 34.7773 22.375 34.6292L17.9029 32.6013L13.4308 34.6292C13.0975 34.7773 12.7642 34.7935 12.4308 34.678C12.0975 34.5621 11.8382 34.3514 11.6529 34.0459ZM13.5142 31.518L17.9029 29.6571L22.4029 31.518L25.0417 27.4071L29.8196 26.2126L29.3475 21.3513L32.625 17.6292L29.3475 13.8238L29.8196 8.96256L25.0417 7.85131L22.3196 3.74047L17.9029 5.60131L13.4029 3.74047L10.7642 7.85131L5.98625 8.96256L6.45833 13.8238L3.18083 17.6292L6.45833 21.3513L5.98625 26.2959L10.7642 27.4071L13.5142 31.518Z" fill="#CE9E7A"/>
</svg>
