<svg width="29" height="29" viewBox="0 0 29 29" fill="none" xmlns="http://www.w3.org/2000/svg">
<path d="M19.9249 14.923L13.5251 8.52324C13.3916 8.38974 13.2979 8.25112 13.2439 8.10737C13.1896 7.96337 13.1625 7.80912 13.1625 7.64462C13.1625 7.48037 13.1896 7.32737 13.2439 7.18562C13.2979 7.04387 13.3916 6.90637 13.5251 6.77312L19.9249 0.372993C20.0584 0.239743 20.197 0.145993 20.3408 0.0917435C20.4848 0.0377435 20.639 0.0107422 20.8035 0.0107422C20.9678 0.0107422 21.1208 0.0377435 21.2625 0.0917435C21.4043 0.145993 21.5418 0.239743 21.675 0.372993L28.0751 6.77312C28.2084 6.90637 28.3021 7.04499 28.3564 7.18899C28.4104 7.33274 28.4374 7.48687 28.4374 7.65137C28.4374 7.81587 28.4104 7.96899 28.3564 8.11074C28.3021 8.25224 28.2084 8.38974 28.0751 8.52324L21.675 14.923C21.5418 15.0565 21.4031 15.1502 21.2591 15.2042C21.1154 15.2585 20.9613 15.2856 20.7968 15.2856C20.6323 15.2856 20.4791 15.2585 20.3374 15.2042C20.1959 15.1502 20.0584 15.0565 19.9249 14.923ZM0 11.7482V2.72312C0 2.36887 0.11975 2.07199 0.35925 1.83249C0.599 1.59299 0.895875 1.47324 1.24988 1.47324H10.275C10.6293 1.47324 10.9261 1.59299 11.1656 1.83249C11.4051 2.07199 11.5249 2.36887 11.5249 2.72312V11.7482C11.5249 12.1022 11.4051 12.3991 11.1656 12.6389C10.9261 12.8784 10.6293 12.9981 10.275 12.9981H1.24988C0.895875 12.9981 0.599 12.8784 0.35925 12.6389C0.11975 12.3991 0 12.1022 0 11.7482ZM15.45 27.1982V18.1731C15.45 17.8189 15.5698 17.522 15.8093 17.2825C16.049 17.043 16.3459 16.9232 16.6999 16.9232H25.725C26.0793 16.9232 26.3761 17.043 26.6156 17.2825C26.8551 17.522 26.9749 17.8189 26.9749 18.1731V27.1982C26.9749 27.5522 26.8551 27.8491 26.6156 28.0889C26.3761 28.3284 26.0793 28.4481 25.725 28.4481H16.6999C16.3459 28.4481 16.049 28.3284 15.8093 28.0889C15.5698 27.8491 15.45 27.5522 15.45 27.1982ZM0 27.1982V18.1731C0 17.8189 0.11975 17.522 0.35925 17.2825C0.599 17.043 0.895875 16.9232 1.24988 16.9232H10.275C10.6293 16.9232 10.9261 17.043 11.1656 17.2825C11.4051 17.522 11.5249 17.8189 11.5249 18.1731V27.1982C11.5249 27.5522 11.4051 27.8491 11.1656 28.0889C10.9261 28.3284 10.6293 28.4481 10.275 28.4481H1.24988C0.895875 28.4481 0.599 28.3284 0.35925 28.0889C0.11975 27.8491 0 27.5522 0 27.1982ZM2.50013 10.498H9.02513V3.97299H2.50013V10.498ZM20.8875 12.373L25.5251 7.73574L20.8875 3.09812L16.2499 7.73574L20.8875 12.373ZM17.9501 25.948H24.4751V19.423H17.9501V25.948ZM2.50013 25.948H9.02513V19.423H2.50013V25.948Z" fill="#CE9E7A"/>
</svg>
