<svg width="32" height="33" viewBox="0 0 32 33" fill="none" xmlns="http://www.w3.org/2000/svg">
<path d="M22.1388 17.0692L15.0279 9.95833C14.8796 9.81 14.7754 9.65597 14.7154 9.49625C14.6551 9.33625 14.625 9.16486 14.625 8.98208C14.625 8.79958 14.6551 8.62958 14.7154 8.47208C14.7754 8.31458 14.8796 8.16181 15.0279 8.01375L22.1388 0.902501C22.2871 0.754446 22.4411 0.650279 22.6008 0.590001C22.7608 0.530001 22.9322 0.5 23.115 0.5C23.2975 0.5 23.4675 0.530001 23.625 0.590001C23.7825 0.650279 23.9353 0.754446 24.0833 0.902501L31.1946 8.01375C31.3426 8.16181 31.4468 8.31584 31.5071 8.47584C31.5671 8.63556 31.5971 8.80681 31.5971 8.98958C31.5971 9.17236 31.5671 9.3425 31.5071 9.5C31.4468 9.65722 31.3426 9.81 31.1946 9.95833L24.0833 17.0692C23.9353 17.2175 23.7812 17.3217 23.6213 17.3817C23.4615 17.4419 23.2903 17.4721 23.1075 17.4721C22.9247 17.4721 22.7546 17.4419 22.5971 17.3817C22.4399 17.3217 22.2871 17.2175 22.1388 17.0692ZM0 13.5417V3.51375C0 3.12014 0.133056 2.79028 0.399167 2.52417C0.665556 2.25806 0.995417 2.125 1.38875 2.125H11.4167C11.8103 2.125 12.1401 2.25806 12.4062 2.52417C12.6724 2.79028 12.8054 3.12014 12.8054 3.51375V13.5417C12.8054 13.935 12.6724 14.2649 12.4062 14.5312C12.1401 14.7974 11.8103 14.9304 11.4167 14.9304H1.38875C0.995417 14.9304 0.665556 14.7974 0.399167 14.5312C0.133056 14.2649 0 13.935 0 13.5417ZM17.1667 30.7083V20.6804C17.1667 20.2868 17.2997 19.9569 17.5658 19.6908C17.8322 19.4247 18.1621 19.2917 18.5554 19.2917H28.5833C28.9769 19.2917 29.3068 19.4247 29.5729 19.6908C29.839 19.9569 29.9721 20.2868 29.9721 20.6804V30.7083C29.9721 31.1017 29.839 31.4315 29.5729 31.6979C29.3068 31.964 28.9769 32.0971 28.5833 32.0971H18.5554C18.1621 32.0971 17.8322 31.964 17.5658 31.6979C17.2997 31.4315 17.1667 31.1017 17.1667 30.7083ZM0 30.7083V20.6804C0 20.2868 0.133056 19.9569 0.399167 19.6908C0.665556 19.4247 0.995417 19.2917 1.38875 19.2917H11.4167C11.8103 19.2917 12.1401 19.4247 12.4062 19.6908C12.6724 19.9569 12.8054 20.2868 12.8054 20.6804V30.7083C12.8054 31.1017 12.6724 31.4315 12.4062 31.6979C12.1401 31.964 11.8103 32.0971 11.4167 32.0971H1.38875C0.995417 32.0971 0.665556 31.964 0.399167 31.6979C0.133056 31.4315 0 31.1017 0 30.7083ZM2.77792 12.1525H10.0279V4.9025H2.77792V12.1525ZM23.2083 14.2358L28.3612 9.08333L23.2083 3.93042L18.0554 9.08333L23.2083 14.2358ZM19.9446 29.3192H27.1946V22.0692H19.9446V29.3192ZM2.77792 29.3192H10.0279V22.0692H2.77792V29.3192Z" fill="#CE9E7A"/>
</svg>
